<svg width="800" height="600" viewBox="0 0 800 600" xmlns="http://www.w3.org/2000/svg">
  <defs>
    <linearGradient id="bg5" x1="100%" y1="0%" x2="0%" y2="100%">
      <stop offset="0%" style="stop-color:#1e1b4b;stop-opacity:1" />
      <stop offset="50%" style="stop-color:#312e81;stop-opacity:1" />
      <stop offset="100%" style="stop-color:#0f172a;stop-opacity:1" />
    </linearGradient>
    <radialGradient id="particleCenter" cx="50%" cy="50%" r="50%">
      <stop offset="0%" stop-color="#8b5cf6" stop-opacity="0.8"/>
      <stop offset="100%" stop-color="#8b5cf6" stop-opacity="0"/>
    </radialGradient>
  </defs>
  
  <!-- Background -->
  <rect width="800" height="600" fill="url(#bg5)" />
  
  <!-- Central glow -->
  <circle cx="400" cy="300" r="200" fill="url(#particleCenter)" opacity="0.3"/>
  
  <!-- Particles -->
  <g fill="#8b5cf6">
    <!-- Large particles -->
    <circle cx="200" cy="150" r="4" opacity="0.8"/>
    <circle cx="600" cy="450" r="5" opacity="0.7"/>
    <circle cx="150" cy="500" r="3" opacity="0.9"/>
    
    <!-- Medium particles -->
    <circle cx="350" cy="100" r="2.5" opacity="0.6"/>
    <circle cx="450" cy="500" r="2" opacity="0.7"/>
    <circle cx="700" cy="200" r="3" opacity="0.5"/>
    <circle cx="100" cy="300" r="2" opacity="0.8"/>
    
    <!-- Small particles -->
    <circle cx="250" cy="250" r="1.2" opacity="0.9"/>
    <circle cx="550" cy="350" r="1" opacity="0.8"/>
    <circle cx="300" cy="400" r="1.5" opacity="0.7"/>
    <circle cx="500" cy="150" r="1" opacity="0.6"/>
    <circle cx="750" cy="500" r="1.3" opacity="0.5"/>
    <circle cx="50" cy="100" r="1" opacity="0.7"/>
    <circle cx="750" cy="50" r="1.5" opacity="0.6"/>
    <circle cx="50" cy="550" r="1.2" opacity="0.8"/>
  </g>
  
  <!-- Connecting lines -->
  <g stroke="#8b5cf6" stroke-opacity="0.2" stroke-width="1">
    <line x1="200" y1="150" x2="350" y2="100" />
    <line x1="350" y1="100" x2="500" y2="150" />
    <line x1="500" y1="150" x2="600" y2="450" />
    <line x1="600" y1="450" x2="550" y2="350" />
    <line x1="550" y1="350" x2="450" y2="500" />
    <line x1="450" y1="500" x2="300" y2="400" />
    <line x1="300" y1="400" x2="150" y2="500" />
    <line x1="150" y1="500" x2="100" y2="300" />
    <line x1="100" y1="300" x2="200" y2="150" />
  </g>
  
  <!-- Floating particles -->
  <g fill="white" opacity="0.3">
    <circle cx="100" cy="80" r="1" />
    <circle cx="750" cy="120" r="1.5" />
    <circle cx="400" cy="60" r="1" />
    <circle cx="250" cy="550" r="1" />
    <circle cx="650" cy="480" r="1.5" />
  </g>
</svg>