<svg width="800" height="600" viewBox="0 0 800 600" xmlns="http://www.w3.org/2000/svg">
  <defs>
    <linearGradient id="grad1" x1="0%" y1="0%" x2="100%" y2="100%">
      <stop offset="0%" style="stop-color:hsl(210, 40%, 15%);stop-opacity:1" />
      <stop offset="100%" style="stop-color:hsl(224, 71%, 4%);stop-opacity:1" />
    </linearGradient>
  </defs>
  <rect width="800" height="600" fill="url(#grad1)" />
  <g stroke="hsl(210, 40%, 50%)" stroke-opacity="0.2" stroke-width="1">
    <path d="M -100 300 q 50 -80 100 0 t 100 0 t 100 0 t 100 0 t 100 0 t 100 0 t 100 0 t 100 0 t 100 0" fill="none" />
    <path d="M -100 350 q 50 80 100 0 t 100 0 t 100 0 t 100 0 t 100 0 t 100 0 t 100 0 t 100 0 t 100 0" fill="none" />
    <path d="M -100 400 q 50 -80 100 0 t 100 0 t 100 0 t 100 0 t 100 0 t 100 0 t 100 0 t 100 0 t 100 0" fill="none" />
    <path d="M -100 450 q 50 80 100 0 t 100 0 t 100 0 t 100 0 t 100 0 t 100 0 t 100 0 t 100 0 t 100 0" fill="none" />
     <path d="M -100 250 q 50 80 100 0 t 100 0 t 100 0 t 100 0 t 100 0 t 100 0 t 100 0 t 100 0 t 100 0" fill="none" />
      <path d="M -100 200 q 50 -80 100 0 t 100 0 t 100 0 t 100 0 t 100 0 t 100 0 t 100 0 t 100 0 t 100 0" fill="none" />
       <path d="M -100 150 q 50 80 100 0 t 100 0 t 100 0 t 100 0 t 100 0 t 100 0 t 100 0 t 100 0 t 100 0" fill="none" />
        <path d="M -100 100 q 50 -80 100 0 t 100 0 t 100 0 t 100 0 t 100 0 t 100 0 t 100 0 t 100 0 t 100 0" fill="none" />
  </g>
</svg>