<svg width="800" height="600" viewBox="0 0 800 600" xmlns="http://www.w3.org/2000/svg">
  <defs>
    <linearGradient id="grad3" x1="0%" y1="100%" x2="100%" y2="0%">
      <stop offset="0%" style="stop-color:hsl(180, 40%, 15%);stop-opacity:1" />
      <stop offset="100%" style="stop-color:hsl(224, 71%, 4%);stop-opacity:1" />
    </linearGradient>
  </defs>
  <rect width="800" height="600" fill="url(#grad3)" />
  <g transform="rotate(45 400 300)" stroke="hsl(180, 40%, 50%)" stroke-opacity="0.15" stroke-width="1.5">
    <line x1="0" y1="0" x2="800" y2="0" />
    <line x1="0" y1="20" x2="800" y2="20" />
    <line x1="0" y1="40" x2="800" y2="40" />
    <line x1="0" y1="60" x2="800" y2="60" />
    <line x1="0" y1="80" x2="800" y2="80" />
    <line x1="0" y1="100" x2="800" y2="100" />
    <line x1="0" y1="120" x2="800" y2="120" />
    <line x1="0" y1="140" x2="800" y2="140" />
    <line x1="0" y1="160" x2="800" y2="160" />
    <line x1="0" y1="180" x2="800" y2="180" />
    <line x1="0" y1="200" x2="800" y2="200" />
    <line x1="0" y1="220" x2="800" y2="220" />
    <line x1="0" y1="240" x2="800" y2="240" />
    <line x1="0" y1="260" x2="800" y2="260" />
    <line x1="0" y1="280" x2="800" y2="280" />
    <line x1="0" y1="300" x2="800" y2="300" />
    <line x1="0" y1="320" x2="800" y2="320" />
    <line x1="0" y1="340" x2="800" y2="340" />
    <line x1="0" y1="360" x2="800" y2="360" />
    <line x1="0" y1="380" x2="800" y2="380" />
    <line x1="0" y1="400" x2="800" y2="400" />
    <line x1="0" y1="420" x2="800" y2="420" />
    <line x1="0" y1="440" x2="800" y2="440" />
    <line x1="0" y1="460" x2="800" y2="460" />
    <line x1="0" y1="480" x2="800" y2="480" />
    <line x1="0" y1="500" x2="800" y2="500" />
    <line x1="0" y1="520" x2="800" y2="520" />
    <line x1="0" y1="540" x2="800" y2="540" />
    <line x1="0" y1="560" x2="800" y2="560" />
    <line x1="0" y1="580" x2="800" y2="580" />
    <line x1="0" y1="600" x2="800" y2="600" />
  </g>
</svg>